<svg width="180" height="180" viewBox="0 0 180 180" fill="none" xmlns="http://www.w3.org/2000/svg">
  <rect width="180" height="180" rx="20" fill="#D4AF37"/>
  <g transform="translate(30, 30)">
    <!-- Scales of Justice Icon -->
    <path d="M60 15C60 6.716 66.716 0 75 0s15 6.716 15 15v7.5h15c4.142 0 7.5 3.358 7.5 7.5s-3.358 7.5-7.5 7.5H90v75c0 4.142-3.358 7.5-7.5 7.5s-7.5-3.358-7.5-7.5V37.5H60c-4.142 0-7.5-3.358-7.5-7.5s3.358-7.5 7.5-7.5h15V15z" fill="#1a1a1a"/>
    
    <!-- Left Scale -->
    <circle cx="45" cy="90" r="22.5" fill="none" stroke="#1a1a1a" stroke-width="2.5"/>
    <path d="M22.5 90h45M33.75 101.25l22.5-22.5M56.25 101.25l-22.5-22.5" stroke="#1a1a1a" stroke-width="2" stroke-linecap="round"/>
    
    <!-- Right Scale -->
    <circle cx="105" cy="90" r="22.5" fill="none" stroke="#1a1a1a" stroke-width="2.5"/>
    <path d="M82.5 90h45M93.75 101.25l22.5-22.5M116.25 101.25l-22.5-22.5" stroke="#1a1a1a" stroke-width="2" stroke-linecap="round"/>
    
    <!-- Balance Beam -->
    <path d="M45 90L75 67.5L105 90" stroke="#1a1a1a" stroke-width="2.5" stroke-linecap="round" stroke-linejoin="round"/>
  </g>
  
  <!-- Company Initial -->
  <text x="90" y="130" font-family="serif" font-size="42" font-weight="bold" text-anchor="middle" fill="#1a1a1a">L</text>
</svg>