<svg width="192" height="192" viewBox="0 0 192 192" fill="none" xmlns="http://www.w3.org/2000/svg">
  <rect width="192" height="192" rx="24" fill="#D4AF37"/>
  <g transform="translate(32, 32)">
    <!-- Scales of Justice Icon -->
    <path d="M64 16C64 7.163 71.163 0 80 0s16 7.163 16 16v8h16c4.418 0 8 3.582 8 8s-3.582 8-8 8H88v80c0 4.418-3.582 8-8 8s-8-3.582-8-8V40H56c-4.418 0-8-3.582-8-8s3.582-8 8-8h16v-8z" fill="#1a1a1a"/>
    
    <!-- Left Scale -->
    <circle cx="48" cy="96" r="24" fill="none" stroke="#1a1a1a" stroke-width="3"/>
    <path d="M24 96h48M36 108l24-24M60 108l-24-24" stroke="#1a1a1a" stroke-width="2" stroke-linecap="round"/>
    
    <!-- Right Scale -->
    <circle cx="112" cy="96" r="24" fill="none" stroke="#1a1a1a" stroke-width="3"/>
    <path d="M88 96h48M100 108l24-24M124 108l-24-24" stroke="#1a1a1a" stroke-width="2" stroke-linecap="round"/>
    
    <!-- Balance Beam -->
    <path d="M48 96L80 72L112 96" stroke="#1a1a1a" stroke-width="3" stroke-linecap="round" stroke-linejoin="round"/>
  </g>
  
  <!-- Company Initial -->
  <text x="96" y="140" font-family="serif" font-size="48" font-weight="bold" text-anchor="middle" fill="#1a1a1a">L</text>
</svg>